<?xml version="1.0" encoding="UTF-8" standalone="no"?>
<svg
   xmlns:dc="http://purl.org/dc/elements/1.1/"
   xmlns:cc="http://creativecommons.org/ns#"
   xmlns:rdf="http://www.w3.org/1999/02/22-rdf-syntax-ns#"
   xmlns:svg="http://www.w3.org/2000/svg"
   xmlns="http://www.w3.org/2000/svg"
   viewBox="0 0 53.333332 53.333332"
   height="53.333332"
   width="53.333332"
   xml:space="preserve"
   id="svg2"
   version="1.1"><metadata
     id="metadata8"><rdf:RDF><cc:Work
         rdf:about=""><dc:format>image/svg+xml</dc:format><dc:type
           rdf:resource="http://purl.org/dc/dcmitype/StillImage" /></cc:Work></rdf:RDF></metadata><defs
     id="defs6"><clipPath
       id="clipPath18"
       clipPathUnits="userSpaceOnUse"><path
         id="path16"
         d="M 0,40 H 40 V 0 H 0 Z" /></clipPath><clipPath
       id="clipPath34"
       clipPathUnits="userSpaceOnUse"><path
         id="path32"
         d="m 18.3961,21.9393 h 4.46 v -2.0501 h -4.46 z" /></clipPath><clipPath
       id="clipPath86"
       clipPathUnits="userSpaceOnUse"><path
         id="path84"
         d="M 18.9836,26.3754 H 20.341 V 23.654 h -1.3574 z" /></clipPath><clipPath
       id="clipPath154"
       clipPathUnits="userSpaceOnUse"><path
         id="path152"
         d="m 16.7773,26.3293 h 0.9411 V 23.993 h -0.9411 z" /></clipPath></defs><g
     transform="matrix(1.3333333,0,0,-1.3333333,0,53.333333)"
     id="g10"><g
       id="g12"><g
         clip-path="url(#clipPath18)"
         id="g14"><g
           transform="translate(38.2744,7.8857)"
           id="g20"><path
             id="path22"
             style="fill:#ffffff;fill-opacity:1;fill-rule:nonzero;stroke:none"
             d="m 0,0 c 0.698,11.207 -6.767,18.763 -15.793,19.934 -0.812,0.106 -0.75,1.626 -2.752,1.626 -2.481,0 -3.553,-1.882 -4.067,-2.012 C -30.791,17.474 -37.26,9.702 -36.526,0 Z" /></g><g
           transform="translate(26.125,18.7637)"
           id="g24"><path
             id="path26"
             style="fill:#3d3c81;fill-opacity:1;fill-rule:nonzero;stroke:none"
             d="m 0,0 c -0.169,2.264 -0.678,5.39 -2.149,7.427 -0.872,1.207 -1.672,1.456 -1.68,1.459 l 0.042,0.141 C -3.778,9.024 -3.567,8.96 -3.244,8.74 -2.949,8.539 -2.499,8.164 -2.03,7.514 -1.207,6.374 -0.161,4.146 0.146,0.011 Z" /></g><g
           id="g28"><g
             id="g30" /><g
             id="g42"><g
               style="opacity:0.369995"
               id="g40"
               clip-path="url(#clipPath34)"><g
                 id="g38"
                 transform="translate(18.5186,21.8701)"><path
                   id="path36"
                   style="fill:#ee3638;fill-opacity:1;fill-rule:nonzero;stroke:none"
                   d="M 0,0 C 0,0 1.4,-0.962 2.424,0.045 2.457,0.078 2.51,0.077 2.542,0.044 l 0.421,-0.42 C 2.994,-0.408 2.996,-0.458 2.967,-0.491 2.864,-0.609 2.592,-0.854 2.071,-0.905 1.948,-0.917 1.887,-1.063 1.967,-1.157 c 0.107,-0.128 0.334,-0.259 0.812,-0.259 0.79,0 0.987,0.761 1.028,0.998 0.007,0.04 0.042,0.068 0.083,0.068 h 0.363 c 0.048,0 0.086,-0.038 0.085,-0.085 -0.007,-0.336 -0.15,-1.546 -1.874,-1.546 -1.32,0 -1.15,0.835 -2.587,1.252 z" /></g></g></g></g><g
           transform="translate(1.6582,7.8789)"
           id="g44"><path
             id="path46"
             style="fill:#3d3c81;fill-opacity:1;fill-rule:nonzero;stroke:none"
             d="m 0,0 c -0.312,4.127 0.665,8.105 2.825,11.507 1.016,1.599 2.268,3.033 3.723,4.261 1.442,1.218 3.05,2.207 4.777,2.938 l 0.066,-0.155 C 9.679,17.826 8.086,16.847 6.657,15.64 5.215,14.422 3.974,13.001 2.968,11.417 0.827,8.046 -0.141,4.103 0.168,0.013 Z" /></g><g
           transform="translate(38.3535,7.8809)"
           id="g48"><path
             id="path50"
             style="fill:#3d3c81;fill-opacity:1;fill-rule:nonzero;stroke:none"
             d="m 0,0 -0.169,0.01 c 0.17,2.718 -0.138,5.302 -0.914,7.684 -0.731,2.246 -1.865,4.276 -3.37,6.032 -2.904,3.39 -7.026,5.56 -11.605,6.109 l 0.021,0.167 c 4.621,-0.554 8.78,-2.744 11.712,-6.166 1.519,-1.773 2.664,-3.822 3.402,-6.09 C -0.141,5.345 0.17,2.738 0,0" /></g><g
           transform="translate(8.6963,7.8857)"
           id="g52"><path
             id="path54"
             style="fill:#3d3c81;fill-opacity:1;fill-rule:nonzero;stroke:none"
             d="m 0,0 c 0,0 -1.327,7.66 5.21,11.708 0,0 0.091,-1.474 1.405,-2.097 0,0 0.704,-1.558 -2.305,-5.475 C 2.972,2.395 3.302,0 3.302,0 Z" /></g><g
           transform="translate(26.1094,19.5942)"
           id="g56"><path
             id="path58"
             style="fill:#3d3c81;fill-opacity:1;fill-rule:nonzero;stroke:none"
             d="m 0,0 c 0,0 -0.226,-7.562 4.787,-11.708 h 0.401 c 0,0 1.555,7.534 -5.188,11.708" /></g><g
           transform="translate(11.0576,21.8965)"
           id="g60"><path
             id="path62"
             style="fill:#3d3c81;fill-opacity:1;fill-rule:nonzero;stroke:none"
             d="m 0,0 c 0,0 0.783,0.525 1.472,-0.163 0,0 -0.106,0.344 -0.488,0.478 0,0 0.411,0.392 0.975,0.392 0,0 -1.211,0.036 -1.682,-0.435 0,0 -0.048,1.075 1.175,2.107 V 2.608 C 1.452,2.608 -0.019,1.844 0,0" /></g><g
           transform="translate(13.6621,24.0127)"
           id="g64"><path
             id="path66"
             style="fill:#3d3c81;fill-opacity:1;fill-rule:nonzero;stroke:none"
             d="M 0,0 C 0,0.085 0.27,0.153 0.603,0.153 0.936,0.153 1.205,0.085 1.205,0 1.205,-0.084 0.936,-0.153 0.603,-0.153 0.27,-0.153 0,-0.084 0,0" /></g><g
           transform="translate(18.5186,26.127)"
           id="g68"><path
             id="path70"
             style="fill:#3d3c81;fill-opacity:1;fill-rule:nonzero;stroke:none"
             d="m 0,0 c -0.679,0 -1.211,-0.5 -1.211,-1.137 0,-0.65 0.544,-1.178 1.211,-1.178 0.668,0 1.211,0.528 1.211,1.178 C 1.211,-0.5 0.679,0 0,0 m 0,-2.4 c -0.714,0 -1.295,0.567 -1.295,1.263 0,0.685 0.569,1.221 1.295,1.221 0.727,0 1.295,-0.536 1.295,-1.221 C 1.295,-1.833 0.714,-2.4 0,-2.4" /></g><g
           transform="translate(18.7915,24.8906)"
           id="g72"><path
             id="path74"
             style="fill:#3d3c81;fill-opacity:1;fill-rule:nonzero;stroke:none"
             d="m 0,0 c 0,-0.34 -0.276,-0.616 -0.616,-0.616 -0.34,0 -0.615,0.276 -0.615,0.616 0,0.34 0.275,0.616 0.615,0.616 C -0.276,0.616 0,0.34 0,0" /></g><g
           transform="translate(18.2935,24.8789)"
           id="g76"><path
             id="path78"
             style="fill:#ffffff;fill-opacity:1;fill-rule:nonzero;stroke:none"
             d="m 0,0 c 0,-0.117 -0.095,-0.212 -0.212,-0.212 -0.117,0 -0.212,0.095 -0.212,0.212 0,0.117 0.095,0.212 0.212,0.212 C -0.095,0.212 0,0.117 0,0" /></g><g
           id="g80"><g
             id="g82" /><g
             id="g94"><g
               style="opacity:0.369995"
               id="g92"
               clip-path="url(#clipPath86)"><g
                 id="g90"
                 transform="translate(20.3408,24.958)"><path
                   id="path88"
                   style="fill:#ee3638;fill-opacity:1;fill-rule:nonzero;stroke:none"
                   d="m 0,0 c 0,-1.048 -1.085,-1.304 -1.085,-1.304 0,0 0.75,0.237 0.75,1.304 0,1.067 -1.022,1.417 -1.022,1.417 C -1.357,1.417 0,1.343 0,0" /></g></g></g></g><g
           transform="translate(12.7993,21.5747)"
           id="g96"><path
             id="path98"
             style="fill:#ee3638;fill-opacity:1;fill-rule:nonzero;stroke:none"
             d="m 0,0 c 0,0 1.726,-1 1.726,-1.854 0,-0.854 0.853,-2.047 1.239,-2.047 0.386,0 0.661,0.064 0.661,0.064 0,0 -0.019,-1.092 1.551,-1.092 1.57,0 1.666,1.505 1.666,1.666 0,0.16 0.115,1.418 -1.446,2.326 0,0 0.386,0.365 0.386,1.096 0,0.732 -0.881,1.181 -1.726,1.622 C 3.486,2.105 3.158,2.503 3.694,2.778 3.771,2.817 3.776,2.93 3.747,3.011 3.665,3.236 3.56,3.729 3.835,4.409 c 0,0 -0.112,0.172 -0.112,0.943 0,0 0.397,1.285 3.068,1.285 2.035,0 2.716,-0.559 2.716,-0.559 0,0 0.85,0.201 0.85,1.598 0,0.275 -0.037,0.49 -0.095,0.659 C 10.106,8.788 9.589,9 9.151,8.811 8.968,8.732 8.728,8.646 8.545,8.646 c 0,0 -0.674,-0.114 -0.674,0.869 0,0.984 -0.423,1.029 -0.618,1.029 C 6.822,10.544 6.731,9.583 6.279,9.542 6.251,9.54 6.223,9.542 6.195,9.547 6.051,9.569 5.676,9.678 5.613,10.211 5.596,10.362 5.487,10.489 5.339,10.525 5.287,10.538 5.236,10.543 5.194,10.545 5.097,10.55 5.002,10.508 4.945,10.429 4.87,10.327 4.795,10.134 4.795,9.772 4.792,9.573 4.674,9.479 4.576,9.437 4.508,9.407 4.429,9.432 4.387,9.494 4.293,9.63 4.105,9.87 3.938,9.87 3.716,9.87 3.454,9.479 3.427,8.679 3.424,8.604 3.363,8.543 3.288,8.543 3.251,8.543 3.216,8.557 3.19,8.583 3.111,8.659 2.927,8.819 2.76,8.819 2.558,8.819 2.3,8.101 2.289,7.581 2.287,7.505 2.227,7.444 2.151,7.441 2.047,7.438 1.904,7.441 1.787,7.472 1.679,7.5 1.563,7.463 1.489,7.38 1.015,6.851 -0.408,5.06 -0.29,2.701 c 0,0 0.351,0.331 1.369,0.331 L 0.922,2.634 c 0,0 1.331,0.633 2.075,-0.228 0.744,-0.862 0.887,-0.861 0.887,-0.861 0,0 1.544,-0.531 1.544,-1.239 0,-0.707 -0.37,-0.936 -0.791,-0.936 C 4.217,-0.63 2.934,0.641 0,0" /></g><g
           transform="translate(21.8018,20.0659)"
           id="g100"><path
             id="path102"
             style="fill:#3d3c81;fill-opacity:1;fill-rule:nonzero;stroke:none"
             d="M 0,0 V -0.29 C 0,-0.328 0.037,-0.354 0.072,-0.341 0.364,-0.232 1.437,0.245 1.437,1.417 1.437,1.849 1.3,2.056 1.183,2.19 1.107,2.276 0.974,2.28 0.893,2.199 L 0.885,2.191 C 0.812,2.118 0.808,2 0.875,1.921 0.963,1.819 1.06,1.696 1.06,1.457 1.06,1.027 0.838,0.395 0.033,0.05 0.013,0.041 0,0.021 0,0" /></g><g
           transform="translate(4.353,10.9131)"
           id="g104"><path
             id="path106"
             style="fill:#ee3638;fill-opacity:1;fill-rule:nonzero;stroke:none"
             d="m 0,0 0.141,-0.552 c 0,0 -0.372,-0.281 -0.372,-0.703 0,-0.421 0.271,-0.652 0.482,-0.652 0.21,0 0.542,0.171 0.572,0.953 0.03,0.783 0.632,1.184 1.114,1.184 0.592,0 1.084,-0.612 1.084,-1.394 0,0 0.183,-1.189 -0.892,-1.525 l -0.142,0.601 c 0,0 0.532,0.121 0.532,0.859 0,0.737 -0.432,0.807 -0.592,0.807 -0.161,0 -0.526,-0.331 -0.526,-0.807 0,-0.477 -0.197,-1.3 -1.04,-1.3 -0.843,0 -1.093,0.753 -1.093,1.354 0,0.603 0.391,0.984 0.732,1.175" /></g><g
           transform="translate(35.9072,8.3701)"
           id="g108"><path
             id="path110"
             style="fill:#ee3638;fill-opacity:1;fill-rule:nonzero;stroke:none"
             d="m 0,0 -0.141,0.552 c 0,0 0.371,0.281 0.371,0.702 0,0.422 -0.27,0.652 -0.481,0.652 -0.211,0 -0.542,-0.17 -0.572,-0.953 -0.03,-0.783 -0.632,-1.184 -1.114,-1.184 -0.592,0 -1.084,0.612 -1.084,1.395 0,0 -0.183,1.188 0.892,1.525 l 0.142,-0.602 c 0,0 -0.532,-0.12 -0.532,-0.858 0,-0.738 0.432,-0.808 0.592,-0.808 0.16,0 0.526,0.331 0.526,0.808 0,0.477 0.197,1.299 1.04,1.299 0.842,0 1.093,-0.752 1.093,-1.354 C 0.732,0.571 0.341,0.19 0,0" /></g><g
           transform="translate(6.2285,12.5918)"
           id="g112"><path
             id="path114"
             style="fill:#ee3638;fill-opacity:1;fill-rule:nonzero;stroke:none"
             d="m 0,0 -1.336,0.78 c -0.045,0.029 -0.027,0.098 0.025,0.101 l 1.48,0.063 z m 1.598,1.047 0.129,0.674 -3.806,-0.233 -0.129,-0.789 3.31,-2.014 0.074,0.593 -0.653,0.459 0.218,1.268 z" /></g><g
           transform="translate(9.2095,18.9727)"
           id="g116"><path
             id="path118"
             style="fill:#ee3638;fill-opacity:1;fill-rule:nonzero;stroke:none"
             d="M 0,0 -0.75,1.227 C -0.774,1.274 -0.723,1.325 -0.676,1.3 L 0.628,0.724 Z M 1.993,0.041 2.448,0.553 -1.055,2.181 -1.569,1.569 0.358,-1.736 0.726,-1.265 0.441,-0.578 1.277,0.4 Z" /></g><g
           transform="translate(30.1777,19.8584)"
           id="g120"><path
             id="path122"
             style="fill:#ee3638;fill-opacity:1;fill-rule:nonzero;stroke:none"
             d="M 0,0 1.4,0.798 C 1.448,0.821 1.494,0.77 1.468,0.724 L 0.662,-0.635 Z m 0.002,-1.883 0.425,-0.502 1.831,3.338 -0.476,0.478 -3.356,-1.622 0.391,-0.372 0.724,0.35 0.937,-0.887 z" /></g><g
           transform="translate(4.9614,16.3213)"
           id="g124"><path
             id="path126"
             style="fill:#ee3638;fill-opacity:1;fill-rule:nonzero;stroke:none"
             d="M 0,0 0.328,0.543 1.667,-0.179 2.323,1.086 0.9,1.85 1.271,2.394 4.429,0.689 4.058,0.146 2.713,0.856 2.098,-0.408 3.486,-1.16 3.157,-1.703 Z" /></g><g
           transform="translate(35.6738,15.5664)"
           id="g128"><path
             id="path130"
             style="fill:#ee3638;fill-opacity:1;fill-rule:nonzero;stroke:none"
             d="m 0,0 0.165,-0.987 -1.993,-1.276 0.002,-0.008 2.457,-0.25 0.144,-0.877 -3.492,-0.956 -0.095,0.582 2.95,0.839 -0.002,0.009 -3.29,0.232 -0.009,0.399 2.731,1.623 -0.002,0.009 -2.98,-0.685 -0.082,0.507 z" /></g><g
           transform="translate(28.7256,23.939)"
           id="g132"><path
             id="path134"
             style="fill:#ee3638;fill-opacity:1;fill-rule:nonzero;stroke:none"
             d="m 0,0 -2.152,-2.865 0.435,-0.326 2.153,2.864 z" /></g><g
           transform="translate(27.4863,22.2891)"
           id="g136"><path
             id="path138"
             style="fill:#ee3638;fill-opacity:1;fill-rule:nonzero;stroke:none"
             d="M 0,0 1.559,-1.171 1.885,-0.736 0.327,0.435 Z" /></g><g
           transform="translate(28.4482,23.5659)"
           id="g140"><path
             id="path142"
             style="fill:#ee3638;fill-opacity:1;fill-rule:nonzero;stroke:none"
             d="m 0,0 1.741,-1.309 0.281,0.374 -1.741,1.31 z" /></g><g
           transform="translate(33.9082,16.6992)"
           id="g144"><path
             id="path146"
             style="fill:#ee3638;fill-opacity:1;fill-rule:nonzero;stroke:none"
             d="m 0,0 c -0.638,-0.383 -1.113,0.765 -1.194,0.976 l 0.936,0.54 C -0.045,1.277 0.635,0.432 0,0 M 0.264,1.821 -0.039,2.345 -3.154,0.546 -2.851,0.02 -1.627,0.726 c 0.051,-0.117 0.191,-0.421 0.408,-0.719 l -0.972,-1.215 0.304,-0.526 1.056,1.319 C -0.509,-0.68 -0.104,-0.81 0.363,-0.53 1.22,0.029 0.663,1.155 0.264,1.821" /></g><g
           id="g148"><g
             id="g150" /><g
             id="g162"><g
               style="opacity:0.369995"
               id="g160"
               clip-path="url(#clipPath154)"><g
                 id="g158"
                 transform="translate(17.3916,23.9932)"><path
                   id="path156"
                   style="fill:#ee3638;fill-opacity:1;fill-rule:nonzero;stroke:none"
                   d="m 0,0 c 0,0 -1.072,1.03 0.327,2.336 0,0 -0.297,-0.173 -0.559,-0.422 C -0.534,1.628 -0.677,1.207 -0.588,0.801 -0.531,0.536 -0.382,0.307 0,0" /></g></g></g></g></g></g></g></svg>